<svg width="1024" height="1024" xmlns="http://www.w3.org/2000/svg" preserveAspectRatio="xMidYMid meet">
 <g>
  <title>background</title>
  <rect fill="none" id="canvas_background" height="1026" width="1026" y="-1" x="-1"/>
 </g>

 <g>
  <title>Layer 1</title>
  <path id="svg_6" d="m511.99999,919.08899c-223.96685,0 -405.38,-182.17794 -405.38,-407.08897c0,-224.91103 181.41315,-407.08897 405.38,-407.08897c223.96685,0 405.38,182.17794 405.38,407.08897c0,224.91103 -181.41315,407.08897 -405.38,407.08897z" opacity="undefined" stroke-width="0" stroke="null" fill="#535F75"/>
  <g stroke="null" id="svg_14">
   <g stroke="null" id="svg_15">
    <path stroke="null" id="svg_7" d="m440.28199,996.27637c-45.69076,-7.68835 -63.70347,-12.30136 -103.24355,-27.01906c-88.08652,-32.51074 -167.38635,-93.35853 -223.1818,-171.12069c-8.34735,-11.64236 -15.15703,-22.84538 -15.15703,-24.82239c0,-1.977 -1.75734,-5.27201 -3.73434,-7.46868c-10.32436,-10.76369 -30.31406,-54.03811 -42.61542,-91.82086c-6.15068,-19.11104 -12.52103,-38.22208 -14.27836,-42.17609c-1.75734,-3.95401 -3.07534,-10.54402 -3.07534,-14.7177c0,-3.95401 -1.977,-15.59637 -4.17368,-25.70105c-2.41634,-10.10469 -4.83268,-31.63207 -5.71135,-48.98577c-1.318,-32.0714 1.977,-105.00089 5.49168,-116.42358c1.09834,-3.51467 3.07534,-14.0587 4.61301,-23.06505c2.41634,-15.81603 15.59637,-59.52979 23.28472,-77.76216c52.06111,-122.79392 145.19997,-215.71312 266.45623,-266.01689c30.97307,-12.96036 78.2015,-25.70105 118.62025,-32.0714c24.82239,-3.95401 113.78757,-4.17368 136.19362,-0.21967c55.57578,9.66535 87.64718,18.89137 128.50527,36.68441c27.23872,11.86202 54.69712,26.36006 67.87714,35.58607c8.56702,6.15068 10.10469,8.34735 10.10469,14.49803c0,15.15703 -9.88502,16.47503 -29.65506,3.95401c-25.04205,-15.81603 -67.87714,-35.80574 -97.75187,-45.69076c-40.19908,-13.39969 -73.58849,-19.98971 -114.66624,-23.06505c-116.42358,-8.56702 -231.74882,27.89773 -323.56968,102.14521c-34.48774,27.89773 -78.2015,76.8835 -102.36488,114.66624c-18.89137,29.65506 -44.81209,87.86685 -53.37911,119.71859c-1.977,7.90802 -5.05234,17.79304 -6.80968,22.18638c-1.53767,4.17368 -5.05234,23.06505 -7.68835,41.73675c-7.02935,50.74311 -4.39334,122.57426 5.49168,157.28166c1.75734,6.15068 3.29501,13.18003 3.29501,15.81603c0,5.49168 12.74069,45.03176 20.86838,63.92313c14.93736,35.36641 28.77639,60.40846 49.4251,88.96519c78.2015,107.85656 178.80904,171.56003 309.73065,195.72341c29.65506,5.49168 115.32524,5.49168 144.9803,0.21967c127.40693,-23.50438 230.65049,-87.42752 302.92097,-187.15639c6.15068,-8.34735 13.18003,-17.79304 15.81603,-20.86838c8.56702,-10.32436 33.60907,-57.99212 43.93343,-83.47351c6.15068,-15.59637 14.93736,-45.69076 18.45204,-63.70347c1.53767,-7.90802 3.73434,-18.23237 5.27201,-23.28472c3.29501,-12.30136 6.80968,-56.01512 6.59001,-85.45051c-0.21967,-77.10316 -24.16338,-161.89467 -64.36247,-228.67348c-9.22602,-15.3767 -10.54402,-26.79939 -3.29501,-31.19273c5.71135,-3.73434 14.93736,-0.43933 19.55037,6.80968c23.50438,37.56308 49.64477,100.82721 57.11345,138.82963c1.318,7.24902 3.95401,19.55037 5.49168,27.45839c11.86202,55.79545 9.44569,149.59331 -5.27201,206.4871c-10.54402,40.63842 -22.62571,73.36882 -36.68441,99.94854c-5.71135,10.98336 -14.0587,27.45839 -18.89137,36.68441c-27.89773,55.35612 -90.94219,120.81692 -155.74399,161.67501c-55.13645,34.70741 -109.17456,55.57578 -178.80904,68.97548c-34.92707,6.59001 -121.25626,7.68835 -155.96366,1.977l-0.00002,0.00002z"/>
    <path fill="#ffffff" id="svg_11" d="m349.55947,707.63377c-2.85567,-3.29501 -5.52234,-407.2322 -3.07534,-407.92186c2.447,-0.68966 99.94854,75.56549 123.23326,94.8962c33.60907,27.89773 34.92707,28.77639 40.85809,27.23872c2.85567,-0.659 15.15703,-9.44569 27.01906,-19.55037c25.70105,-21.08804 128.72494,-101.04688 132.01994,-102.14521c1.75734,-0.659 2.41634,13.39969 2.41634,44.37276c0,42.39576 2.29102,101.81516 -1.66299,104.01183c-6.15068,3.07534 -12.82659,4.43504 -16.78059,0.48103c-3.51467,-28.55672 -6.59846,-94.60782 -7.69679,-95.48649c-1.09834,-0.659 -9.44569,4.83268 -18.45204,11.86202c-14.49803,11.42269 -62.38546,47.4481 -91.60119,68.75581c-5.49168,3.95401 -12.30136,9.44569 -15.3767,12.30136c-7.02935,6.37035 -17.57337,6.37035 -24.38305,-0.21967c-2.85567,-2.63601 -10.10469,-8.34735 -15.81603,-12.52103c-5.93101,-4.17368 -14.27836,-10.76369 -18.67171,-14.49803c-4.61301,-3.73434 -12.30136,-9.44569 -17.57337,-12.74069c-10.54402,-6.59001 -55.13645,-40.63842 -64.8018,-49.4251c-4.61301,-4.39334 -6.59001,-4.83268 -8.56702,-2.85567c-2.19667,2.19667 -3.07534,42.39576 -3.51467,175.7337c-0.43933,103.90255 -1.53767,174.19603 -2.85567,176.61237c-2.41634,4.61301 -11.42269,5.27201 -14.7177,1.09834l-0.00002,-0.00001l-0.00001,-0.00001z"/>
   </g>
  </g>
  <g id="svg_1" stroke="null">
   <g id="svg_3" fill-rule="evenodd" stroke="null">
    <path fill="#ffffff" id="svg_4" d="m587.28105,476.4935l159.72391,0l0,35.47616l-159.72391,0l0,-35.47616z" stroke="null"/>
    <path fill="#ffffff" id="svg_5" d="m565.983,724.99359l202.32,0l0,-276.86698l-202.32,0l0,276.86698zm173.95311,-28.40502l-21.295,0c-1.94809,0 -3.55364,-1.60852 -3.55364,-3.55661c0,-1.94511 1.60852,-3.55364 3.55364,-3.55364l21.295,0c1.94809,0 3.55364,1.60852 3.55364,3.55364c0,1.94809 -1.60852,3.55661 -3.55364,3.55661zm0,-17.74151l-21.295,0c-1.94809,0 -3.55364,-1.60852 -3.55364,-3.55364c0,-1.94809 1.60852,-3.55364 3.55364,-3.55364l21.295,0c1.94809,0 3.55364,1.60852 3.55364,3.55364c0,1.94809 -1.60852,3.55364 -3.55364,3.55364zm0,-17.73846l-21.295,0c-1.94809,0 -3.55364,-1.60852 -3.55364,-3.55364c0,-1.94809 1.60852,-3.55661 3.55364,-3.55661l21.295,0c1.94809,0 3.55364,1.60852 3.55364,3.55661c0,1.94511 -1.60852,3.55364 -3.55364,3.55364zm0,-17.78269l-21.295,0c-1.94809,0 -3.55364,-1.60852 -3.55364,-3.55364c0,-1.94809 1.60852,-3.55661 3.55364,-3.55661l21.295,0c1.94809,0 3.55364,1.60852 3.55364,3.55661s-1.60852,3.55364 -3.55364,3.55364zm0,-17.73541l-21.295,0c-1.94809,0 -3.55364,-1.60852 -3.55364,-3.55661c0,-1.94511 1.60852,-3.55364 3.55364,-3.55364l21.295,0c1.94809,0 3.55364,1.60852 3.55364,3.55364c0,1.98683 -1.60852,3.55661 -3.55364,3.55661zm0,-17.74151l-21.295,0c-1.94809,0 -3.55364,-1.60852 -3.55364,-3.55364c0,-1.94809 1.60852,-3.55661 3.55364,-3.55661l21.295,0c1.94809,0 3.55364,1.60852 3.55364,3.55661c0,1.94511 -1.60852,3.55364 -3.55364,3.55364zm0,-17.73846l-21.295,0c-1.94809,0 -3.55364,-1.60852 -3.55364,-3.55661c0,-1.94511 1.60852,-3.55364 3.55364,-3.55364l21.295,0c1.94809,0 3.55364,1.60852 3.55364,3.55364c0,1.94809 -1.60852,3.55661 -3.55364,3.55661zm0,-17.77964l-21.295,0c-1.94809,0 -3.55364,-1.60852 -3.55364,-3.55661c0,-1.94511 1.60852,-3.55364 3.55364,-3.55364l21.295,0c1.94809,0 3.55364,1.60852 3.55364,3.55364c0,1.94809 -1.60852,3.55661 -3.55364,3.55661zm0,-17.73846l-21.295,0c-1.94809,0 -3.55364,-1.60852 -3.55364,-3.55364c0,-1.94809 1.60852,-3.55364 3.55364,-3.55364l21.295,0c1.94809,0 3.55364,1.60852 3.55364,3.55364c0,1.94809 -1.60852,3.55364 -3.55364,3.55364zm-159.72391,-81.62345c0,-1.94809 1.60852,-3.55661 3.55364,-3.55661l166.83851,0c1.94809,0 3.55364,1.60852 3.55364,3.55661l0,42.58999c0,1.94809 -1.60852,3.55661 -3.55364,3.55661l-166.83851,0c-1.94511,0 -3.55364,-1.60852 -3.55364,-3.55661l0,-42.58999zm3.51193,74.50961l106.46736,0c1.94809,0 3.55364,1.60852 3.55364,3.55364c0,1.94809 -1.60852,3.55364 -3.55364,3.55364l-106.46736,0c-1.94809,0 -3.55661,-1.60852 -3.55661,-3.55364c0,-1.94809 1.60852,-3.55364 3.55661,-3.55364zm0,17.77964l106.46736,0c1.94809,0 3.55364,1.60852 3.55364,3.55364c0,1.94809 -1.60852,3.55364 -3.55364,3.55364l-106.46736,0c-1.94809,0 -3.55661,-1.60852 -3.55661,-3.55364c0,-1.94809 1.60852,-3.55364 3.55661,-3.55364zm0,17.73846l106.46736,0c1.94809,0 3.55364,1.60852 3.55364,3.55364c0,1.94809 -1.60852,3.55661 -3.55364,3.55661l-106.46736,0c-1.94809,0 -3.55661,-1.60852 -3.55661,-3.55661c0.04468,-1.9898 1.60852,-3.55364 3.55661,-3.55364zm0,17.73846l106.46736,0c1.94809,0 3.55364,1.60852 3.55364,3.55661c0,1.94511 -1.60852,3.55364 -3.55364,3.55364l-106.46736,0c-1.94809,0 -3.55661,-1.60852 -3.55661,-3.55364c0.04468,-1.94511 1.60852,-3.55661 3.55661,-3.55661zm0,17.73846l106.46736,0c1.94809,0 3.55364,1.60852 3.55364,3.55364c0,1.94809 -1.60852,3.55661 -3.55364,3.55661l-106.46736,0c-1.94809,0 -3.55661,-1.60852 -3.55661,-3.55661c0.04468,-1.94809 1.60852,-3.55364 3.55661,-3.55364zm0,17.77964l106.46736,0c1.94809,0 3.55364,1.60852 3.55364,3.55364c0,1.94809 -1.60852,3.55661 -3.55364,3.55661l-106.46736,0c-1.94809,0 -3.55661,-1.60852 -3.55661,-3.55661c0,-1.94511 1.60852,-3.55364 3.55661,-3.55364zm0,17.73846l106.46736,0c1.94809,0 3.55364,1.60852 3.55364,3.55661c0,1.94809 -1.60852,3.55364 -3.55364,3.55364l-106.46736,0c-1.94809,0 -3.55661,-1.60852 -3.55661,-3.55364c0.04468,-1.9898 1.60852,-3.55661 3.55661,-3.55661zm0,17.73846l106.46736,0c1.94809,0 3.55364,1.60852 3.55364,3.55364c0,1.94809 -1.60852,3.55364 -3.55364,3.55364l-106.46736,0c-1.94809,0 -3.55661,-1.60852 -3.55661,-3.55364c0,-1.94809 1.60852,-3.55364 3.55661,-3.55364zm0,17.73846l106.46736,0c1.94809,0 3.55364,1.60852 3.55364,3.55364c0,1.94809 -1.60852,3.55661 -3.55364,3.55661l-106.46736,0c-1.94809,0 -3.55661,-1.60852 -3.55661,-3.55661c0.04468,-1.94809 1.60852,-3.55364 3.55661,-3.55364z" stroke="null"/>
   </g>
  </g>
  <g>
   <g fill="black" stroke-width="0.25mm" stroke="#000" font-size="9pt" fill-rule="evenodd" stroke-linecap="round" id="svg_12"/>
  </g>
  <g>
   <desc>Created with Fabric.js 3.6.3</desc>

   <g>
    <g fill="white" stroke-width="0.25mm" stroke="#fff" font-size="9pt" stroke-linecap="round" id="svg_16">
     <path vector-effect="non-scaling-stroke" d="m374.40001,827.5494l9.2,-1.45q1.75,6.8 7.275,10.625a21.514,21.514 0 0 0 10.226,3.685a27.36,27.36 0 0 0 2.799,0.14a26.641,26.641 0 0 0 5.028,-0.456a21.533,21.533 0 0 0 3.747,-1.069q3.925,-1.525 6.225,-4.375a10.345,10.345 0 0 0 2.295,-6.387a12.982,12.982 0 0 0 0.005,-0.363q0,-2.272 -0.739,-3.939a7.139,7.139 0 0 0 -0.086,-0.186q-0.825,-1.725 -2.25,-2.95a14.166,14.166 0 0 0 -3.001,-1.967a15.743,15.743 0 0 0 -0.224,-0.108q-1.8,-0.85 -3.75,-1.4l-18.35,-5.45q-3,-0.9 -5.8,-2.275q-2.8,-1.375 -5,-3.45a15.307,15.307 0 0 1 -3.418,-4.818a17.444,17.444 0 0 1 -0.082,-0.182a14.498,14.498 0 0 1 -1.014,-3.411q-0.286,-1.639 -0.286,-3.514a20.524,20.524 0 0 1 0.718,-5.545a16.514,16.514 0 0 1 2.607,-5.38a20.447,20.447 0 0 1 7.136,-6.037a25.151,25.151 0 0 1 1.889,-0.888a29.901,29.901 0 0 1 8.131,-2.098q2.139,-0.253 4.428,-0.253a41.648,41.648 0 0 1 0.291,0.001q7.25,0.05 12.975,2.575q5.725,2.525 9.5,7.225a24.748,24.748 0 0 1 4.445,8.665a30.181,30.181 0 0 1 0.63,2.585l-9.45,1.65a17.097,17.097 0 0 0 -1.534,-4.793a15.136,15.136 0 0 0 -1.791,-2.782q-2.575,-3.175 -6.425,-4.9q-3.85,-1.725 -8.45,-1.775a25.73,25.73 0 0 0 -0.292,-0.002q-4.226,0 -7.658,1.402a15.7,15.7 0 0 0 -3.188,1.731a12.559,12.559 0 0 0 -2.462,2.294q-2.1,2.575 -2.1,5.925a9.325,9.325 0 0 0 0.278,2.34a6.757,6.757 0 0 0 1.622,2.985a13.281,13.281 0 0 0 3.829,2.812a15.595,15.595 0 0 0 0.846,0.388a47.795,47.795 0 0 0 4.092,1.524a41.798,41.798 0 0 0 1.333,0.401l13.7,3.95a49.611,49.611 0 0 1 1.864,0.558q1.025,0.327 2.159,0.73a91.626,91.626 0 0 1 1.402,0.512a25.183,25.183 0 0 1 4.881,2.479a28.881,28.881 0 0 1 1.094,0.746q2.9,2.075 4.8,5.5a14.164,14.164 0 0 1 1.395,3.734q0.505,2.21 0.505,4.891a22.236,22.236 0 0 1 -0.577,5.165a18.143,18.143 0 0 1 -1.498,4.085q-2.075,4.05 -5.775,6.775a26.054,26.054 0 0 1 -6.225,3.356a31.104,31.104 0 0 1 -2.375,0.794a36.285,36.285 0 0 1 -8.083,1.357a42.291,42.291 0 0 1 -2.417,0.068a38.836,38.836 0 0 1 -7.698,-0.734a31.431,31.431 0 0 1 -6.077,-1.866a26.616,26.616 0 0 1 -7.978,-5.151a25.063,25.063 0 0 1 -2.122,-2.274a24.224,24.224 0 0 1 -4.926,-10.203a28.786,28.786 0 0 1 -0.249,-1.222zm174.9,-4.55l-9,0l0,-3.2q-0.092,-6.124 -1.605,-10.344a15.843,15.843 0 0 0 -2.445,-4.531a12.544,12.544 0 0 0 -7.363,-4.491a19.502,19.502 0 0 0 -4.237,-0.434a20.44,20.44 0 0 0 -5.097,0.598a13.721,13.721 0 0 0 -7.453,4.702a17.389,17.389 0 0 0 -3.014,5.748q-1.286,4.038 -1.286,9.452a34.124,34.124 0 0 0 0.452,5.741q0.53,3.1 1.681,5.579a16.292,16.292 0 0 0 2.167,3.48a13.978,13.978 0 0 0 8.835,4.981a20.728,20.728 0 0 0 3.415,0.269a19.666,19.666 0 0 0 4.854,-0.575a15.72,15.72 0 0 0 4.446,-1.875a16.195,16.195 0 0 0 5.376,-5.532a20.038,20.038 0 0 0 0.824,-1.518l8.55,2.95q-3.15,7.15 -9.475,11.075a26.287,26.287 0 0 1 -13.93,3.924a31.266,31.266 0 0 1 -0.245,0.001a30.297,30.297 0 0 1 -7.226,-0.827a24.169,24.169 0 0 1 -6.649,-2.698q-5.925,-3.525 -9.225,-9.85a28.629,28.629 0 0 1 -2.836,-8.736a37.812,37.812 0 0 1 -0.464,-6.039a40.691,40.691 0 0 1 0.622,-7.289a29.65,29.65 0 0 1 2.628,-8.036a24.782,24.782 0 0 1 5.452,-7.299a23.232,23.232 0 0 1 3.623,-2.701a24.241,24.241 0 0 1 9.193,-3.214a31.354,31.354 0 0 1 4.482,-0.311q8.15,0 13.875,3.75q5.725,3.75 8.6,10.7q2.524,6.101 2.524,14.245a55.388,55.388 0 0 1 -0.049,2.305zm59.05,0l-9,0l0,-3.2q-0.092,-6.124 -1.605,-10.344a15.843,15.843 0 0 0 -2.445,-4.531a12.544,12.544 0 0 0 -7.363,-4.491a19.502,19.502 0 0 0 -4.237,-0.434a20.44,20.44 0 0 0 -5.097,0.598a13.721,13.721 0 0 0 -7.453,4.702a17.389,17.389 0 0 0 -3.014,5.748q-1.286,4.038 -1.286,9.452a34.124,34.124 0 0 0 0.452,5.741q0.53,3.1 1.681,5.579a16.292,16.292 0 0 0 2.167,3.48a13.978,13.978 0 0 0 8.835,4.981a20.728,20.728 0 0 0 3.415,0.269a19.666,19.666 0 0 0 4.854,-0.575a15.72,15.72 0 0 0 4.446,-1.875a16.195,16.195 0 0 0 5.376,-5.532a20.038,20.038 0 0 0 0.824,-1.518l8.55,2.95q-3.15,7.15 -9.475,11.075a26.287,26.287 0 0 1 -13.93,3.924a31.266,31.266 0 0 1 -0.245,0.001a30.297,30.297 0 0 1 -7.226,-0.827a24.169,24.169 0 0 1 -6.649,-2.698q-5.925,-3.525 -9.225,-9.85a28.629,28.629 0 0 1 -2.836,-8.736a37.812,37.812 0 0 1 -0.464,-6.039a40.691,40.691 0 0 1 0.622,-7.289a29.65,29.65 0 0 1 2.628,-8.036a24.782,24.782 0 0 1 5.452,-7.299a23.232,23.232 0 0 1 3.623,-2.701a24.241,24.241 0 0 1 9.193,-3.214a31.354,31.354 0 0 1 4.482,-0.311q8.15,0 13.875,3.75q5.725,3.75 8.6,10.7q2.524,6.101 2.524,14.245a55.388,55.388 0 0 1 -0.049,2.305zm-120,24.5l-9,0l0,-27.05a40.012,40.012 0 0 0 -0.517,-6.508a36.644,36.644 0 0 0 -0.158,-0.892a20.523,20.523 0 0 0 -1.358,-4.443a17.956,17.956 0 0 0 -0.992,-1.932q-1.675,-2.825 -4.5,-4.475a11.382,11.382 0 0 0 -3.194,-1.237q-1.391,-0.323 -3.008,-0.393a21.19,21.19 0 0 0 -0.923,-0.02a17.264,17.264 0 0 0 -3.571,0.356a14.266,14.266 0 0 0 -2.504,0.769q-2.725,1.125 -4.675,3.425a14.41,14.41 0 0 0 -1.962,3.052a19.337,19.337 0 0 0 -1.063,2.723a22.625,22.625 0 0 0 -0.772,3.527q-0.303,2.151 -0.303,4.648l-5.85,-1.8a36.539,36.539 0 0 1 0.522,-6.335q0.649,-3.686 2.105,-6.736a22.635,22.635 0 0 1 0.198,-0.404a21.013,21.013 0 0 1 4.971,-6.505a20.01,20.01 0 0 1 2.979,-2.145a21.563,21.563 0 0 1 7.711,-2.699a28.249,28.249 0 0 1 4.364,-0.326a27.956,27.956 0 0 1 4.01,0.272q2.743,0.398 4.94,1.378a19.105,19.105 0 0 1 4.137,2.483a16.588,16.588 0 0 1 2.013,1.892q2.45,2.725 3.85,6.1q1.4,3.375 1.975,6.85a43.373,43.373 0 0 1 0.494,4.197a35.819,35.819 0 0 1 0.081,2.378l0,29.85zm161.25,-7.65l0,7.65q-4.8,0.95 -9.475,0.775a23.646,23.646 0 0 1 -4.678,-0.623a18.905,18.905 0 0 1 -3.647,-1.277q-3.65,-1.725 -5.55,-5.375a16.488,16.488 0 0 1 -1.465,-4.232a14.657,14.657 0 0 1 -0.26,-2.243a162.544,162.544 0 0 1 -0.09,-3.262q-0.035,-1.958 -0.035,-4.163l0,-48.6l8.9,0l0,48.2a245.678,245.678 0 0 0 0.011,2.341q0.008,0.92 0.024,1.748a126.041,126.041 0 0 0 0.04,1.561a10.406,10.406 0 0 0 0.248,1.996a7.726,7.726 0 0 0 0.777,2.054a7.168,7.168 0 0 0 4.777,3.571a9.939,9.939 0 0 0 0.948,0.179q3.925,0.55 9.475,-0.3zm-199.75,7.65l-9,0l0,-72l8,0l0,39.75l1,0l0,32.25zm94.85,-24.5l-39.9,0l0,-7.15l39.9,0l0,7.15zm59.05,0l-39.9,0l0,-7.15l39.9,0l0,7.15zm45.85,-22.15l-36.15,0l0,-7.35l36.15,0l0,7.35z"/>
    </g>
   </g>
  </g>
 </g>
</svg>